<svg width="100" height="44" viewBox="0 0 100 44" fill="none" xmlns="http://www.w3.org/2000/svg">
<path d="M25.4637 1.107C25.3417 1.122 24.9767 1.163 24.5157 1.21C24.1957 1.243 23.8837 1.269 23.6747 1.286C23.2587 0.529 22.5207 0 21.5987 0C20.8737 0 20.2847 0.225 19.7897 0.843C19.3747 1.362 19.1047 2.078 18.8417 2.45C16.7007 5.484 13.2887 6.014 9.28868 6.014C8.36668 6.014 7.47268 5.9 6.60968 5.702C6.47068 5.67 6.33468 5.81 6.39768 5.938C8.01568 9.211 11.8737 11.576 15.0077 12.094V16.141H15.9207V12.19C16.0117 12.194 16.1047 12.204 16.1937 12.204C16.7577 12.208 17.2657 12.163 17.7477 12.092V16.141H18.6607V11.904C20.1397 11.501 21.2357 10.7 22.1857 9.544C23.3307 8.151 23.9987 5.676 24.0387 3.267C24.1887 3.114 24.5327 2.754 24.7647 2.442C25.2987 1.728 25.7167 1.075 25.4637 1.107ZM21.8067 2.708C21.4307 2.708 21.1257 2.403 21.1257 2.027C21.1257 1.651 21.4307 1.346 21.8067 1.346C22.1827 1.346 22.4877 1.651 22.4877 2.027C22.4877 2.403 22.1827 2.708 21.8067 2.708Z" fill="#00CC96"/>
<path d="M19.181 16.1338V37.0478H14.341V28.4728H4.84V37.0478H0V16.1338H4.84V24.3798H14.341V16.1338H19.181Z" fill="black"/>
<path d="M39.7663 20.9736L32.5063 38.0336C30.9523 41.9176 28.7413 43.0826 25.8433 43.0826C24.1993 43.0826 22.4083 42.5446 21.3633 41.6186L23.0663 38.3026C23.7823 38.9296 24.7683 39.3186 25.6943 39.3186C26.9793 39.3186 27.6963 38.7516 28.3233 37.3176L28.3843 37.1686L21.4223 20.9736H26.2323L30.7433 31.8786L35.2843 20.9736H39.7663Z" fill="black"/>
<path d="M57.8111 20.9739V34.3589C57.8111 40.3349 54.5841 43.0829 48.7891 43.0829C45.7411 43.0829 42.7841 42.3359 40.9011 40.8719L42.7541 37.5259C44.1281 38.6309 46.3691 39.3479 48.4311 39.3479C51.7171 39.3479 53.1521 37.8539 53.1521 34.9559V34.2689C51.9261 35.6129 50.1641 36.2699 48.0731 36.2699C43.6211 36.2699 40.0361 33.1929 40.0361 28.5019C40.0361 23.8119 43.6211 20.7339 48.0731 20.7339C50.3131 20.7339 52.1661 21.4809 53.3901 23.0339V20.9739H57.8111ZM53.2101 28.5029C53.2101 26.1429 51.4471 24.5599 48.9971 24.5599C46.5471 24.5599 44.7551 26.1429 44.7551 28.5029C44.7551 30.8629 46.5471 32.4469 48.9971 32.4469C51.4471 32.4469 53.2101 30.8629 53.2101 28.5029Z" fill="black"/>
<path d="M78.7242 20.9739V34.3589C78.7242 40.3349 75.4972 43.0829 69.7022 43.0829C66.6542 43.0829 63.6972 42.3359 61.8142 40.8719L63.6672 37.5259C65.0412 38.6309 67.2822 39.3479 69.3442 39.3479C72.6302 39.3479 74.0652 37.8539 74.0652 34.9559V34.2689C72.8392 35.6129 71.0772 36.2699 68.9862 36.2699C64.5342 36.2699 60.9492 33.1929 60.9492 28.5019C60.9492 23.8119 64.5342 20.7339 68.9862 20.7339C71.2262 20.7339 73.0792 21.4809 74.3032 23.0339V20.9739H78.7242ZM74.1232 28.5029C74.1232 26.1429 72.3602 24.5599 69.9102 24.5599C67.4602 24.5599 65.6682 26.1429 65.6682 28.5029C65.6682 30.8629 67.4602 32.4469 69.9102 32.4469C72.3602 32.4469 74.1232 30.8629 74.1232 28.5029Z" fill="black"/>
<path d="M98.7123 30.3258H86.5523C87.0003 32.3268 88.7033 33.5528 91.1543 33.5528C92.8563 33.5528 94.0823 33.0448 95.1873 31.9988L97.6663 34.6878C96.1723 36.3908 93.9323 37.2878 91.0333 37.2878C85.4763 37.2878 81.8613 33.7918 81.8613 29.0118C81.8613 24.2008 85.5363 20.7358 90.4353 20.7358C95.1563 20.7358 98.8013 23.9028 98.8013 29.0708C98.8023 29.4288 98.7413 29.9368 98.7123 30.3258ZM86.4923 27.6068H94.4093C94.0813 25.5748 92.5573 24.2608 90.4663 24.2608C88.3453 24.2608 86.8213 25.5448 86.4923 27.6068Z" fill="black"/>
</svg>
