<svg width="32" height="33" viewBox="0 0 32 33" fill="none" xmlns="http://www.w3.org/2000/svg">
<path d="M29 22.4052V11.2488C28.9995 10.7597 28.8709 10.2793 28.6271 9.85583C28.3834 9.43237 28.033 9.08073 27.6111 8.83618L17.8889 3.25795C17.4666 3.01315 16.9876 2.88428 16.5 2.88428C16.0124 2.88428 15.5334 3.01315 15.1111 3.25795L5.38889 8.83618C4.96703 9.08073 4.61664 9.43237 4.37286 9.85583C4.12909 10.2793 4.0005 10.7597 4 11.2488V22.4052C4.0005 22.8943 4.12909 23.3747 4.37286 23.7982C4.61664 24.2216 4.96703 24.5733 5.38889 24.8178L15.1111 30.396C15.5334 30.6408 16.0124 30.7697 16.5 30.7697C16.9876 30.7697 17.4666 30.6408 17.8889 30.396L27.6111 24.8178C28.033 24.5733 28.3834 24.2216 28.6271 23.7982C28.8709 23.3747 28.9995 22.8943 29 22.4052Z" stroke="black" stroke-width="2.5" stroke-linecap="round" stroke-linejoin="round"/>
<path d="M4.375 9.79834L16.5 16.8409L28.625 9.79834" stroke="black" stroke-width="2.5" stroke-linecap="round" stroke-linejoin="round"/>
<path d="M16.5 30.8843V16.8271" stroke="black" stroke-width="2.5" stroke-linecap="round" stroke-linejoin="round"/>
</svg>
